<svg fill="none" height="28" width="18" xmlns="http://www.w3.org/2000/svg"><g fill="#d73838" opacity=".7"><path d="m3.73904 10.173c-.68026 0-1.32178-.23875-1.85565-.70767-1.097896-.95953-1.524137-2.64848-1.089285-4.30705l1.128035.29959c-.3143 1.21136-.02153 2.46179.72762 3.12174.37027.32129.99887.62522 1.91162.2388.57263-.24314.92137-.69469 1.03332-1.33727.1593-.90743-.21958-1.98854-.65443-2.39667l.7922-.86401c.7922.7381 1.22706 2.22733 1.01178 3.46474-.18083 1.03335-.7922 1.81921-1.73079 2.21865-.42624.18235-.85679.26915-1.27442.26915zm9.48496-6.24646-10.23328 12.49786.89971.7492 10.23327-12.49791z"/><path d="m8.56109 27.08c-2.04079 0-3.99977-.7946-5.36891-2.1796-1.11081-1.1245-1.72219-2.5182-1.71357-3.925.01722-3.9249 2.10967-6.1479 7.00929-7.4331l.35735-.0955.2368.2865c2.39385 2.9047 5.40765 6.478 6.98775 8.3536l.2368.2779-.1464.3343c-1.1969 2.7875-3.9653 4.3809-7.59911 4.3809zm-5.9157-6.1002c-.00431 1.0898.48221 2.1882 1.37344 3.0913 1.14956 1.1636 2.80716 1.8323 4.54226 1.8323 2.99661 0 5.30001-1.2114 6.37641-3.3389-1.5758-1.8669-4.2753-5.0755-6.51418-7.7848-4.08589 1.1462-5.76502 2.9611-5.77793 6.2001z"/><path d="m8.77645 14.6842-.29277-1.1376.06888-.0174c.05167-.013.09903-.026.15069-.039 1.04623-.2649 1.96755-.7251 2.74685-1.372l.3359-1.1159.8912-.534.043-.94219.8138-.81192-.1636-.99426.3358-.97257c-.0258-.3951-.0904-.79454-.1808-1.1853-.4865-2.01893-2.5101-4.1768-4.74465-4.1768-2.64786 0-4.24088 1.22004-4.74462 3.62973-.45638 2.19695 1.29164 4.22022 2.44551 5.56181.19374.2258.37888.4385.53387.6296.17653.2171.36166.4472.55541.6903l-.90415.7468c-.19805-.2431-.38319-.4732-.55971-.6947-.14208-.1736-.3186-.3821-.50804-.5991-1.22706-1.42415-3.28507-3.81213-2.70814-6.57785.61568-2.95241 2.70814-4.571899 5.88987-4.571899 2.87605 0 5.29145 2.635469 5.87695 5.079889.1206.49931.1938 1.01164.2196 1.51528l.0043.11723-.3143.90744.211 1.29819-.9171.92042-.0517 1.1202-1.0419.6209-.3014 1.0073-.1291.1129c-.9429.8249-2.071 1.4111-3.35399 1.7324zm8.03835 10.1033s-.6458-.7598-1.6361-1.9364l-.2368-.2779.1464-.3343c.564-1.3112.7061-2.909.4219-4.7542l1.1539-.1781c.2927 1.9104.1679 3.6081-.3703 5.0539.8611 1.0203 1.4079 1.6629 1.4079 1.6629z"/><path d="m14.0386 4.59425c-.2202-.92999-.4359-1.19435-.4359-1.19435l-6.85898 8.5493c.63773-.8073-2.63809 3.2809-3.92731 4.8907.00458-.0047.00458-.0047.00917-.0094 1.16994-1.2841 2.95466-2.2471 5.52393-2.9316.06423-.0189.12388-.0331.18811-.052 4.26678-1.0999 6.47368-5.14086 5.50098-9.25265z" opacity=".5"/></g></svg>