<svg viewBox="0 0 24 24" fill="none" xmlns="http://www.w3.org/2000/svg"><path fill-rule="evenodd" clip-rule="evenodd" d="M4.92888 4.92894c.39052-.39053 1.02369-.39053 1.41421 0L19.071 17.6569c.3905.3905.3905 1.0237 0 1.4142-.3905.3905-1.0237.3905-1.4142 0L4.92888 6.34315c-.39052-.39052-.39052-1.02369 0-1.41421z"/><path fill-rule="evenodd" clip-rule="evenodd" d="M19.0712 4.92891c.3905.39052.3905 1.02369 0 1.41421L6.34329 19.071c-.39052.3906-1.02369.3906-1.41421 0-.39053-.3905-.39053-1.0236 0-1.4142L17.657 4.92891c.3905-.39052 1.0237-.39052 1.4142 0z"/></svg>