<svg viewBox="0 0 168 47" fill="none" xmlns="http://www.w3.org/2000/svg"><g clip-path="url(#clip0)"><path d="M71.943 35.37v-7.984c0-1.302.15-1.455 1.435-1.455.292 0 .583-.01.874.002.276.01.42-.078.418-.383-.006-2.453-.006-4.903 0-7.355 0-.329-.206-.38-.46-.445-1.908-.488-3.217-1.655-3.928-3.486-.183-.47-.28-.96-.28-1.465C70 9.17 70 5.543 70 1.914c0-.081-.002-.162.008-.242.05-.364.248-.588.625-.629.406-.044.653.167.756.53.052.182.04.384.04.575.003 3.113.012 6.227-.009 9.339-.004.495.142.652.631.623a17.486 17.486 0 0 1 1.99 0c.485.027.64-.122.637-.621-.022-3.081-.012-6.16-.01-9.242 0-.178-.008-.356.012-.532.05-.438.338-.695.734-.681.396.013.662.286.672.735.016.693.006 1.388.006 2.08 0 2.55.01 5.097-.01 7.646-.003.449.105.64.59.613a22.104 22.104 0 0 1 2.09-.002c.442.02.588-.126.584-.575-.017-3.096-.01-6.193-.008-9.29 0-.193-.011-.39.027-.578.076-.368.294-.614.696-.624.402-.007.631.221.705.598.039.204.054.417.054.624.004 3.371.008 6.74 0 10.112-.005 2.642-1.666 4.742-4.252 5.367-.344.083-.486.211-.484.575.014 2.37.014 4.742 0 7.113-.002.373.107.528.498.505.42-.025.84-.01 1.262-.004.651.01.977.312 1.041.96.01.097.008.194.008.29 0 5.371.004 10.742-.004 16.113-.001 1.147-.36 2.15-1.301 2.893-1.105.875-2.323 1.053-3.596.484-1.284-.575-2.03-1.593-2.042-3.029-.023-2.758-.005-5.516-.005-8.274l-.002.004zm5.453.368v-7.59c0-.727-.002-.729-.71-.729h-2.62c-.698 0-.7.002-.7.687v15.03c0 .146-.003.291.008.436.082 1.063.857 1.878 1.828 1.92 1.321.06 2.186-.743 2.192-2.07.007-2.561.002-5.124.002-7.684zM75.43 13.58c-1.098 0-2.198-.002-3.295.002-.486.002-.523.058-.344.492.562 1.37 2.075 2.355 3.608 2.347 1.548-.008 3.046-.993 3.605-2.355.144-.353.085-.496-.324-.49-1.086.015-2.168.004-3.25.004zM95.998 22.346c0 6.983-.002 13.967.002 20.951 0 1.123-.262 2.141-1.084 2.958-1.115 1.107-2.858.911-3.742-.399-.577-.855-.742-1.813-.744-2.808-.01-4.823-.003-9.644-.003-14.468 0-.76-.002-.752-.776-.768-.84-.017-1.682-.044-2.523-.077-.54-.021-.796-.273-.796-.823a98.04 98.04 0 0 1 .262-7.44c.19-2.525.484-5.036 1.002-7.513.686-3.269 1.605-6.457 3.647-9.19C92.142 1.565 93.2.527 94.71.092c.91-.263 1.29.027 1.29.966l-.002 21.29zm-1.494-8.343c0-3.917 0-7.835-.002-11.754 0-.141.066-.337-.06-.41-.163-.097-.286.095-.41.182-1.152.812-1.94 1.933-2.605 3.14-1.088 1.985-1.735 4.131-2.219 6.324-1.043 4.726-1.369 9.524-1.392 14.351-.002.399.16.49.522.486 1.813-.012 3.625-.004 5.438-.004.726 0 .728-.002.728-.708.002-3.87 0-7.738 0-11.607zm0 22.102v-.387c0-2.45-.008-4.902.006-7.352.002-.416-.126-.587-.558-.562-.516.031-1.035.026-1.554.01-.347-.012-.487.105-.487.47.01 5.112.005 10.223.011 15.335 0 .51.17.983.467 1.401.468.66 1.21.652 1.692-.006.351-.482.425-1.03.423-1.604-.004-2.435 0-4.87 0-7.304z"/></g><path stroke="#000" d="M0 23.5h50M118 23.5h50"/><defs><clipPath id="clip0"><path transform="translate(70)" d="M0 0h26v47H0z"/></clipPath></defs></svg>