<svg viewBox="0 0 69 28" fill="none" xmlns="http://www.w3.org/2000/svg"><path d="M23.8948 3.2595c0-.1396.1076-.2637.2614-.2637h5.5663c.1487 0 .2614.1241.2614.2637v1.132c0 .1395-.1076.2635-.2614.2635h-4.0492v2.2588h3.3778c.1384 0 .2614.124.2614.2636v1.1423a.2636.2636 0 0 1-.2614.2636h-3.3778v2.4138h4.0492c.1487 0 .2614.1241.2614.2637v1.1319c0 .1396-.1076.2636-.2614.2636h-5.5714c-.1487 0-.2615-.124-.2615-.2636V3.2595h.0052zM31.7112 12.2945l4.2491-9.278c.041-.0827.1076-.15.2306-.15h.1384c.1384 0 .1897.0673.2307.15l4.2081 9.278c.082.1809-.0257.3566-.2307.3566h-1.1891c-.205 0-.3024-.0827-.3947-.2739l-.6714-1.4887h-4.0851l-.6714 1.4887c-.0564.1395-.1794.2739-.3947.2739h-1.1891c-.1999 0-.3127-.1809-.2307-.3566zm5.9046-2.941l-1.3685-3.0342h-.0359l-1.3377 3.0341h2.7421zM43.823 4.655h-2.0913c-.1486 0-.2614-.124-.2614-.2636v-1.132c0-.1395.1077-.2635.2614-.2635h5.9764c.1487 0 .2614.124.2614.2636v1.132c0 .1395-.1076.2635-.2614.2635h-2.0912v7.7325c0 .1396-.123.2637-.2614.2637h-1.2711c-.1384 0-.2614-.1241-.2614-.2637V4.655zM28.1182 16.1504c1.2301 0 2.4039.4807 3.3367 1.2819.1077.1085.1231.2739.0154.3876l-.8457.8942c-.1076.1086-.2307.1086-.3537 0-.5894-.522-1.3121-.8012-2.0656-.8012-1.7068 0-3.0599 1.4732-3.0599 3.1995 0 1.7109 1.3531 3.1582 3.0753 3.1582.7637 0 1.3532-.2326 1.6248-.3463v-1.1734h-1.0917c-.1487 0-.2614-.1085-.2614-.2481v-1.0906c0-.1499.1076-.2636.2614-.2636h2.6243c.1383 0 .246.1241.246.2636v3.5303c0 .1086-.0564.1809-.1077.2223 0 0-1.4095.8942-3.3879.8942-2.7217 0-4.9103-2.1761-4.9103-4.9362-.0103-2.7498 2.1783-4.9724 4.9-4.9724zM34.6482 16.5535c0-.1395.1076-.2636.2614-.2636h3.9108c1.6402 0 2.9779 1.3232 2.9779 2.9669 0 1.2664-.8354 2.3001-2.0246 2.786l1.8709 3.4993c.0974.1809 0 .398-.2307.398h-1.4351c-.123 0-.1897-.0672-.2204-.1241l-1.8196-3.6543h-1.5172v3.5148c0 .1395-.123.2636-.2614.2636h-1.2557c-.1487 0-.2614-.1241-.2614-.2636v-9.123h.0051zm4.0236 4.1351c.7227 0 1.3531-.6358 1.3531-1.4059 0-.7288-.6304-1.3388-1.3531-1.3388h-2.2297v2.7447h2.2297zM44.7814 16.5535c0-.1395.1076-.2636.2614-.2636h5.5663c.1487 0 .2614.1241.2614.2636v1.132c0 .1395-.1076.2636-.2614.2636h-4.0492v2.2588h3.3778c.1384 0 .2614.124.2614.2636v1.1423a.2635.2635 0 0 1-.2614.2636h-3.3778v2.4138h4.0492c.1487 0 .2614.1241.2614.2636v1.132c0 .1395-.1076.2636-.2614.2636h-5.5715c-.1486 0-.2614-.1241-.2614-.2636v-9.1333h.0052zM53.8434 16.5535c0-.1395.1076-.2636.2614-.2636h5.5663c.1487 0 .2614.1241.2614.2636v1.132c0 .1395-.1076.2636-.2614.2636h-4.0492v2.2588h3.3778c.1384 0 .2614.124.2614.2636v1.1423a.2635.2635 0 0 1-.2614.2636h-3.3778v2.4138h4.0492c.1487 0 .2614.1241.2614.2636v1.132c0 .1395-.1076.2636-.2614.2636h-5.5663c-.1487 0-.2614-.1241-.2614-.2636v-9.1333zM64.1919 17.944h-2.0913c-.1486 0-.2614-.1241-.2614-.2636v-1.132c0-.1396.1077-.2636.2614-.2636h5.9764c.1487 0 .2614.124.2614.2636v1.132c0 .1395-.1076.2636-.2614.2636h-2.0912v7.7325c0 .1395-.123.2636-.2614.2636h-1.2711c-.1384 0-.2614-.1241-.2614-.2636V17.944z"/><g opacity=".7"><path d="M3.739 10.173c-.6802 0-1.3217-.2387-1.8556-.7077C.7854 8.5058.3593 6.817.794 5.1583l1.128.2996c-.3143 1.2113-.0215 2.4618.7277 3.1217.3702.3213.9988.6252 1.9116.2388.5726-.2431.9214-.6947 1.0333-1.3373.1593-.9074-.2196-1.9885-.6544-2.3966l.7922-.864c.7922.738 1.227 2.2273 1.0118 3.4647-.1809 1.0334-.7923 1.8192-1.7308 2.2187-.4263.1823-.8568.2691-1.2745.2691zM13.224 3.9265L2.9907 16.4244l.8997.7492 10.2333-12.498-.8997-.749z"/><path d="M8.561 27.08c-2.0407 0-3.9997-.7946-5.3688-2.1796-1.1108-1.1245-1.7222-2.5182-1.7136-3.925.0172-3.9249 2.1097-6.1479 7.0093-7.4331l.3574-.0955.2368.2865c2.3938 2.9047 5.4076 6.478 6.9877 8.3536l.2368.2779-.1464.3343c-1.1969 2.7875-3.9653 4.3809-7.5991 4.3809zm-5.9156-6.1002c-.0043 1.0898.4822 2.1882 1.3734 3.0913 1.1496 1.1636 2.8072 1.8323 4.5423 1.8323 2.9966 0 5.3-1.2114 6.3764-3.3389-1.5758-1.8669-4.2753-5.0755-6.5142-7.7848-4.0859 1.1462-5.765 2.9611-5.778 6.2001z"/><path d="M8.7765 14.6842l-.2928-1.1376.0689-.0174c.0516-.013.099-.026.1507-.039 1.0462-.2649 1.9675-.7251 2.7468-1.372l.3359-1.1159.8912-.534.043-.9422.8138-.812-.1636-.9942.3358-.9725c-.0258-.3951-.0904-.7946-.1808-1.1853-.4865-2.019-2.5101-4.1768-4.7447-4.1768-2.6478 0-4.2408 1.22-4.7446 3.6297-.4564 2.197 1.2917 4.2202 2.4455 5.5618.1938.2258.379.4385.534.6296.1764.2171.3616.4472.5553.6903l-.9041.7468a82.494 82.494 0 0 1-.5597-.6947 25.4522 25.4522 0 0 0-.508-.5991C4.372 9.9255 2.314 7.5376 2.8908 4.7718 3.5066 1.8194 5.599.2 8.7807.2c2.8761 0 5.2915 2.6354 5.877 5.0798a8.2918 8.2918 0 0 1 .2196 1.5153l.0043.1173-.3143.9074.211 1.2982-.9171.9204-.0517 1.1202-1.0419.6209-.3014 1.0073-.1291.1129c-.9429.8249-2.071 1.4111-3.354 1.7324l-.2066.0521zM16.8148 24.7875s-.6458-.7598-1.6361-1.9364l-.2368-.2779.1464-.3343c.564-1.3112.7061-2.909.4219-4.7542l1.1539-.1781c.2927 1.9104.1679 3.6081-.3703 5.0539a596.8099 596.8099 0 0 0 1.4079 1.6629l-.8869.7641z"/><path opacity=".5" d="M14.0386 4.5942c-.2202-.93-.4359-1.1943-.4359-1.1943l-6.859 8.5493c.6378-.8073-2.638 3.2809-3.9273 4.8907l.0092-.0094c1.17-1.2841 2.9546-2.2471 5.524-2.9316.0641-.0189.1238-.0331.188-.052 4.2668-1.0999 6.4737-5.1409 5.501-9.2526z"/></g></svg>