<svg viewBox="0 0 104 48" fill="none" xmlns="http://www.w3.org/2000/svg"><g clip-path="url(#clip0)"><path d="M37.34 9.39c0-.21.16-.4.4-.4h8.34c.23 0 .4.19.4.4v1.7c0 .2-.17.4-.4.4h-6.07v3.38h5.07c.2 0 .39.19.39.4v1.71a.4.4 0 0 1-.4.4h-5.06V21h6.07c.23 0 .4.18.4.4v1.69c0 .2-.17.4-.4.4h-8.35a.4.4 0 0 1-.4-.4V9.39h.01zM49.07 22.94l6.37-13.92c.06-.12.16-.22.35-.22h.2c.21 0 .29.1.35.22l6.31 13.92c.13.27-.04.54-.34.54h-1.79c-.3 0-.45-.13-.59-.41l-1-2.24H52.8l-1.01 2.24a.62.62 0 0 1-.6.4h-1.78c-.3 0-.47-.26-.34-.53zm8.85-4.41l-2.05-4.55h-.05l-2 4.55h4.1zM67.23 11.48H64.1a.4.4 0 0 1-.4-.4v-1.7c0-.2.17-.39.4-.39h8.96c.22 0 .4.19.4.4v1.7c0 .2-.17.4-.4.4h-3.13v11.6c0 .2-.19.39-.4.39h-1.9a.4.4 0 0 1-.4-.4v-11.6zM43.68 28.73c1.84 0 3.6.72 5 1.92.16.16.19.4.03.58l-1.27 1.34c-.16.16-.35.16-.53 0a4.65 4.65 0 0 0-3.1-1.2 4.72 4.72 0 0 0-4.6 4.8 4.69 4.69 0 0 0 4.62 4.74c1.15 0 2.03-.35 2.44-.52v-1.76h-1.64c-.22 0-.4-.17-.4-.38v-1.63c0-.23.17-.4.4-.4h3.94c.2 0 .37.19.37.4v5.3c0 .16-.09.27-.17.33 0 0-2.1 1.34-5.08 1.34a7.34 7.34 0 0 1-7.36-7.4 7.38 7.38 0 0 1 7.35-7.46zM53.47 29.33c0-.2.16-.4.4-.4h5.86a4.46 4.46 0 0 1 4.47 4.46c0 1.9-1.26 3.45-3.04 4.17l2.8 5.25c.15.27 0 .6-.34.6h-2.15a.36.36 0 0 1-.33-.19l-2.73-5.48h-2.28v5.27c0 .21-.18.4-.39.4h-1.88a.4.4 0 0 1-.4-.4V29.33h.01zm6.04 6.2a2.1 2.1 0 0 0 2.03-2.1c0-1.1-.95-2.01-2.03-2.01h-3.35v4.11h3.35zM68.67 29.33c0-.2.16-.4.4-.4h8.34c.23 0 .4.2.4.4v1.7c0 .2-.17.4-.4.4h-6.07v3.38h5.07c.2 0 .39.19.39.4v1.71a.4.4 0 0 1-.4.4h-5.06v3.62h6.07c.23 0 .4.18.4.4v1.69c0 .21-.17.4-.4.4h-8.35a.4.4 0 0 1-.4-.4v-13.7h.01zM82.27 29.33c0-.2.16-.4.39-.4H91c.22 0 .39.2.39.4v1.7c0 .2-.16.4-.4.4h-6.07v3.38H90c.2 0 .4.19.4.4v1.71a.4.4 0 0 1-.4.4h-5.07v3.62h6.08c.22 0 .39.18.39.4v1.69c0 .21-.16.4-.4.4h-8.34a.4.4 0 0 1-.4-.4v-13.7zM97.79 31.42h-3.14a.4.4 0 0 1-.4-.4v-1.7c0-.2.17-.4.4-.4h8.97c.22 0 .39.2.39.4v1.7c0 .21-.16.4-.4.4h-3.13v11.6c0 .2-.19.39-.4.39h-1.9a.4.4 0 0 1-.4-.4v-11.6z"/><g opacity=".7"><path d="M7.1 19.76a4.16 4.16 0 0 1-2.77-1.06c-1.65-1.44-2.3-3.97-1.64-6.46l1.7.45c-.48 1.81-.04 3.69 1.08 4.68.56.48 1.5.94 2.87.36a2.52 2.52 0 0 0 1.55-2c.24-1.37-.33-3-.98-3.6l1.19-1.3c1.19 1.1 1.84 3.34 1.52 5.2a4.29 4.29 0 0 1-2.6 3.33c-.64.27-1.28.4-1.91.4zM21.34 10.39L5.99 29.14l1.35 1.12 15.35-18.75-1.35-1.12z"/><path d="M14.34 45.12c-3.06 0-6-1.2-8.05-3.27a8.37 8.37 0 0 1-2.57-5.89c.02-5.88 3.16-9.22 10.51-11.15l.54-.14.35.43c3.6 4.36 8.11 9.72 10.49 12.53l.35.42-.22.5c-1.8 4.18-5.95 6.57-11.4 6.57zm-8.87-9.15c0 1.63.72 3.28 2.06 4.64a9.6 9.6 0 0 0 6.81 2.74c4.5 0 7.95-1.81 9.57-5-2.37-2.8-6.42-7.62-9.77-11.68-6.13 1.72-8.65 4.44-8.67 9.3z"/><path d="M14.66 26.53l-.43-1.71.1-.03.22-.05c1.57-.4 2.96-1.1 4.13-2.06l.5-1.68 1.34-.8.06-1.41 1.22-1.22-.24-1.49.5-1.46c-.04-.6-.14-1.2-.27-1.78-.73-3.03-3.77-6.26-7.12-6.26-3.97 0-6.36 1.83-7.12 5.44-.68 3.3 1.94 6.33 3.67 8.35a133.48 133.48 0 0 1 1.63 1.98l-1.35 1.12a38.07 38.07 0 0 0-1.6-1.94c-1.84-2.14-4.93-5.72-4.06-9.87.92-4.43 4.06-6.86 8.83-6.86 4.32 0 7.94 3.95 8.82 7.62.18.75.29 1.52.33 2.27v.18l-.47 1.36.32 1.95-1.38 1.38-.08 1.68-1.56.93-.45 1.51-.2.17a11.97 11.97 0 0 1-5.03 2.6l-.3.08zM26.72 41.68l-2.45-2.9-.36-.42.22-.5c.85-1.97 1.06-4.37.64-7.13l1.73-.27c.44 2.87.25 5.41-.56 7.58l2.11 2.5-1.33 1.14z"/><path opacity=".5" d="M22.56 11.4c-.33-1.4-.66-1.8-.66-1.8L11.62 22.42c.95-1.2-3.96 4.93-5.9 7.34l.02-.01c1.75-1.93 4.43-3.37 8.28-4.4l.29-.08c6.4-1.65 9.7-7.71 8.25-13.88z"/></g></g><defs><clipPath id="clip0"><path d="M0 0h104v48H0z"/></clipPath></defs></svg>