<svg viewBox="0 0 24 24" xmlns="http://www.w3.org/2000/svg"><path d="M17.4 12.7a5.6 5.6 0 0 0 0-1.4l1.5-1.1v-.5l-1.4-2.4c0-.2-.3-.2-.4-.2l-1.8.7-1.2-.6-.3-1.9c0-.2-.2-.3-.4-.3h-2.8c-.2 0-.4.1-.4.3L10 7.2l-1.2.6L7 7.1c-.1 0-.3 0-.4.2L5 9.7v.5l1.6 1.1a4.3 4.3 0 0 0 0 1.4L5 13.8v.5l1.4 2.4c0 .2.3.2.4.2l1.8-.7 1.2.6.3 1.9c0 .2.2.3.4.3h2.8c.2 0 .4-.1.4-.3l.3-1.9 1.2-.6 1.8.7c.1 0 .3 0 .4-.2l1.4-2.4v-.5l-1.5-1.1zm-5.4 2A2.7 2.7 0 0 1 9.3 12c0-1.4 1.2-2.6 2.7-2.6 1.5 0 2.7 1.2 2.7 2.6 0 1.4-1.2 2.6-2.7 2.6z" /></svg>