<svg width="24" height="24"  xmlns="http://www.w3.org/2000/svg"><path d="M4 11h3.2c.6 0 1-.4 1-1V6c0-.5-.4-1-1-1H4.1C3.5 5 3 5.5 3 6v4c0 .6.5 1 1 1zm0 7h3.2c.6 0 1-.4 1-1v-4c0-.6-.4-1-1-1H4.1c-.6 0-1.1.4-1.1 1v4c0 .6.5 1 1 1zm6.4 0h3.2c.6 0 1-.4 1-1v-4c0-.6-.4-1-1-1h-3.2c-.6 0-1 .4-1 1v4c0 .6.4 1 1 1zm6.4 0h3.1c.6 0 1.1-.4 1.1-1v-4c0-.6-.5-1-1-1h-3.2c-.6 0-1 .4-1 1v4c0 .6.4 1 1 1zm-6.4-7h3.2c.6 0 1-.4 1-1V6c0-.5-.4-1-1-1h-3.2c-.6 0-1 .5-1 1v4c0 .6.4 1 1 1zm5.3-5v4c0 .6.5 1 1 1H20c.6 0 1.1-.4 1.1-1V6c0-.5-.5-1-1-1h-3.2c-.6 0-1 .5-1 1z" fill="#000"/></svg>