<svg width="24" height="24"  xmlns="http://www.w3.org/2000/svg"><path fill-rule="evenodd" clip-rule="evenodd" d="M20.4 6.7l.5-.4c.7-.5 1.2-1.1 1.5-2l-.6.3c-.5.3-1.5.7-2.3.7A4.8 4.8 0 0 0 16 4h-.6l-1 .4A4.3 4.3 0 0 0 12 7.2c-.2.6-.3 1.5 0 2a13.6 13.6 0 0 1-8.9-4l-.5-.4L2 5.9c-.4 1.6.3 3 1 3.9l.9.7h-.6l-1-.3L2 10c0 1.8 1 3 2.1 3.7.4.2 1 .5 1.5.5-.3.3-1.6.2-2 .1a4.4 4.4 0 0 0 2.8 2.8l1.4.2c-.3.3-.9.5-1.3.7-.7.5-1.6.8-2.7 1l-1.3.1H1l.4.2 1.3.6a14.2 14.2 0 0 0 9 .6 12.2 12.2 0 0 0 9-12.3l.8-.5A7 7 0 0 0 23 6c-.8.2-1.6.7-2.6.7z" /></svg>