<svg width="24" height="24" viewBox="0 0 24 24" fill="none" xmlns="http://www.w3.org/2000/svg">
<path d="M12 3C8.68286 3 6 5.73292 6 9.11197C6 12.753 9.78857 17.7735 11.3486 19.6857C11.6914 20.1048 12.3171 20.1048 12.66 19.6857C14.2114 17.7735 18 12.753 18 9.11197C18 5.73292 15.3171 3 12 3ZM12 11.2948C10.8171 11.2948 9.85714 10.3169 9.85714 9.11197C9.85714 7.90704 10.8171 6.92912 12 6.92912C13.1829 6.92912 14.1429 7.90704 14.1429 9.11197C14.1429 10.3169 13.1829 11.2948 12 11.2948Z" fill="#3F3B3B"/>
</svg>
