<svg width="24" height="24" viewBox="0 0 24 24" fill="none" xmlns="http://www.w3.org/2000/svg">
<path d="M4.05882 11H7.23529C7.81765 11 8.29412 10.55 8.29412 10V6C8.29412 5.45 7.81765 5 7.23529 5H4.05882C3.47647 5 3 5.45 3 6V10C3 10.55 3.47647 11 4.05882 11ZM4.05882 18H7.23529C7.81765 18 8.29412 17.55 8.29412 17V13C8.29412 12.45 7.81765 12 7.23529 12H4.05882C3.47647 12 3 12.45 3 13V17C3 17.55 3.47647 18 4.05882 18ZM10.4118 18H13.5882C14.1706 18 14.6471 17.55 14.6471 17V13C14.6471 12.45 14.1706 12 13.5882 12H10.4118C9.82941 12 9.35294 12.45 9.35294 13V17C9.35294 17.55 9.82941 18 10.4118 18ZM16.7647 18H19.9412C20.5235 18 21 17.55 21 17V13C21 12.45 20.5235 12 19.9412 12H16.7647C16.1824 12 15.7059 12.45 15.7059 13V17C15.7059 17.55 16.1824 18 16.7647 18ZM10.4118 11H13.5882C14.1706 11 14.6471 10.55 14.6471 10V6C14.6471 5.45 14.1706 5 13.5882 5H10.4118C9.82941 5 9.35294 5.45 9.35294 6V10C9.35294 10.55 9.82941 11 10.4118 11ZM15.7059 6V10C15.7059 10.55 16.1824 11 16.7647 11H19.9412C20.5235 11 21 10.55 21 10V6C21 5.45 20.5235 5 19.9412 5H16.7647C16.1824 5 15.7059 5.45 15.7059 6Z" fill="black"/>
</svg>
